<mxfile host="Electron" modified="2024-05-02T08:13:04.328Z" agent="Mozilla/5.0 (Windows NT 10.0; Win64; x64) AppleWebKit/537.36 (KHTML, like Gecko) draw.io/23.1.5 Chrome/120.0.6099.109 Electron/28.1.0 Safari/537.36" etag="BNEcPYF7vDCNcOWExk0W" version="23.1.5" type="device">
  <diagram name="Pagina-1" id="ZVqXwxV6eX_yHdT_jrFr">
    <mxGraphModel dx="610" dy="376" grid="1" gridSize="10" guides="1" tooltips="1" connect="1" arrows="1" fold="1" page="1" pageScale="1" pageWidth="827" pageHeight="1169" math="0" shadow="0">
      <root>
        <mxCell id="0" />
        <mxCell id="1" parent="0" />
        <mxCell id="5oXmgEn8arqMIcCC4W9q-24" value="CLIENT" style="shape=cube;whiteSpace=wrap;html=1;boundedLbl=1;backgroundOutline=1;darkOpacity=0.05;darkOpacity2=0.1;" parent="1" vertex="1">
          <mxGeometry x="570" y="250" width="80" height="80" as="geometry" />
        </mxCell>
        <mxCell id="5oXmgEn8arqMIcCC4W9q-21" style="edgeStyle=orthogonalEdgeStyle;rounded=0;orthogonalLoop=1;jettySize=auto;html=1;" parent="1" source="5oXmgEn8arqMIcCC4W9q-19" target="5oXmgEn8arqMIcCC4W9q-5" edge="1">
          <mxGeometry relative="1" as="geometry" />
        </mxCell>
        <mxCell id="5oXmgEn8arqMIcCC4W9q-19" value="CTX EF" style="shape=cube;whiteSpace=wrap;html=1;boundedLbl=1;backgroundOutline=1;darkOpacity=0.05;darkOpacity2=0.1;" parent="1" vertex="1">
          <mxGeometry x="560" y="90" width="90" height="80" as="geometry" />
        </mxCell>
        <mxCell id="5oXmgEn8arqMIcCC4W9q-13" style="edgeStyle=orthogonalEdgeStyle;rounded=0;orthogonalLoop=1;jettySize=auto;html=1;" parent="1" source="5oXmgEn8arqMIcCC4W9q-1" target="5oXmgEn8arqMIcCC4W9q-2" edge="1">
          <mxGeometry relative="1" as="geometry" />
        </mxCell>
        <mxCell id="5oXmgEn8arqMIcCC4W9q-1" value="CLogin" style="shape=cube;whiteSpace=wrap;html=1;boundedLbl=1;backgroundOutline=1;darkOpacity=0.05;darkOpacity2=0.1;" parent="1" vertex="1">
          <mxGeometry x="100" y="90" width="120" height="80" as="geometry" />
        </mxCell>
        <mxCell id="5oXmgEn8arqMIcCC4W9q-11" style="edgeStyle=orthogonalEdgeStyle;rounded=0;orthogonalLoop=1;jettySize=auto;html=1;" parent="1" source="5oXmgEn8arqMIcCC4W9q-2" target="5oXmgEn8arqMIcCC4W9q-3" edge="1">
          <mxGeometry relative="1" as="geometry" />
        </mxCell>
        <mxCell id="5oXmgEn8arqMIcCC4W9q-2" value="SLogin" style="shape=cube;whiteSpace=wrap;html=1;boundedLbl=1;backgroundOutline=1;darkOpacity=0.05;darkOpacity2=0.1;" parent="1" vertex="1">
          <mxGeometry x="290" y="90" width="120" height="80" as="geometry" />
        </mxCell>
        <mxCell id="5oXmgEn8arqMIcCC4W9q-12" style="edgeStyle=orthogonalEdgeStyle;rounded=0;orthogonalLoop=1;jettySize=auto;html=1;" parent="1" source="5oXmgEn8arqMIcCC4W9q-3" target="5oXmgEn8arqMIcCC4W9q-2" edge="1">
          <mxGeometry relative="1" as="geometry" />
        </mxCell>
        <mxCell id="5oXmgEn8arqMIcCC4W9q-3" value="RLogin" style="shape=cube;whiteSpace=wrap;html=1;boundedLbl=1;backgroundOutline=1;darkOpacity=0.05;darkOpacity2=0.1;" parent="1" vertex="1">
          <mxGeometry x="490" y="90" width="90" height="80" as="geometry" />
        </mxCell>
        <mxCell id="5oXmgEn8arqMIcCC4W9q-15" style="edgeStyle=orthogonalEdgeStyle;rounded=0;orthogonalLoop=1;jettySize=auto;html=1;" parent="1" source="5oXmgEn8arqMIcCC4W9q-4" target="5oXmgEn8arqMIcCC4W9q-6" edge="1">
          <mxGeometry relative="1" as="geometry" />
        </mxCell>
        <mxCell id="5oXmgEn8arqMIcCC4W9q-4" value="CChat" style="shape=cube;whiteSpace=wrap;html=1;boundedLbl=1;backgroundOutline=1;darkOpacity=0.05;darkOpacity2=0.1;" parent="1" vertex="1">
          <mxGeometry x="100" y="250" width="120" height="80" as="geometry" />
        </mxCell>
        <mxCell id="5oXmgEn8arqMIcCC4W9q-5" value="SQL Server" style="shape=cylinder3;whiteSpace=wrap;html=1;boundedLbl=1;backgroundOutline=1;size=15;" parent="1" vertex="1">
          <mxGeometry x="740" y="90" width="60" height="80" as="geometry" />
        </mxCell>
        <mxCell id="5oXmgEn8arqMIcCC4W9q-16" style="edgeStyle=orthogonalEdgeStyle;rounded=0;orthogonalLoop=1;jettySize=auto;html=1;" parent="1" source="5oXmgEn8arqMIcCC4W9q-6" target="5oXmgEn8arqMIcCC4W9q-4" edge="1">
          <mxGeometry relative="1" as="geometry" />
        </mxCell>
        <mxCell id="5oXmgEn8arqMIcCC4W9q-22" style="edgeStyle=orthogonalEdgeStyle;rounded=0;orthogonalLoop=1;jettySize=auto;html=1;" parent="1" source="5oXmgEn8arqMIcCC4W9q-6" target="5oXmgEn8arqMIcCC4W9q-7" edge="1">
          <mxGeometry relative="1" as="geometry" />
        </mxCell>
        <mxCell id="5oXmgEn8arqMIcCC4W9q-6" value="SChat" style="shape=cube;whiteSpace=wrap;html=1;boundedLbl=1;backgroundOutline=1;darkOpacity=0.05;darkOpacity2=0.1;" parent="1" vertex="1">
          <mxGeometry x="290" y="250" width="120" height="80" as="geometry" />
        </mxCell>
        <mxCell id="5oXmgEn8arqMIcCC4W9q-23" style="edgeStyle=orthogonalEdgeStyle;rounded=0;orthogonalLoop=1;jettySize=auto;html=1;" parent="1" source="5oXmgEn8arqMIcCC4W9q-7" target="5oXmgEn8arqMIcCC4W9q-6" edge="1">
          <mxGeometry relative="1" as="geometry" />
        </mxCell>
        <mxCell id="5oXmgEn8arqMIcCC4W9q-7" value="RChat" style="shape=cube;whiteSpace=wrap;html=1;boundedLbl=1;backgroundOutline=1;darkOpacity=0.05;darkOpacity2=0.1;" parent="1" vertex="1">
          <mxGeometry x="490" y="250" width="100" height="80" as="geometry" />
        </mxCell>
        <mxCell id="5oXmgEn8arqMIcCC4W9q-27" style="edgeStyle=orthogonalEdgeStyle;rounded=0;orthogonalLoop=1;jettySize=auto;html=1;" parent="1" source="5oXmgEn8arqMIcCC4W9q-8" target="5oXmgEn8arqMIcCC4W9q-24" edge="1">
          <mxGeometry relative="1" as="geometry" />
        </mxCell>
        <mxCell id="5oXmgEn8arqMIcCC4W9q-8" value="MongoDB" style="shape=cylinder3;whiteSpace=wrap;html=1;boundedLbl=1;backgroundOutline=1;size=15;" parent="1" vertex="1">
          <mxGeometry x="740" y="250" width="60" height="80" as="geometry" />
        </mxCell>
        <mxCell id="5oXmgEn8arqMIcCC4W9q-14" style="edgeStyle=orthogonalEdgeStyle;rounded=0;orthogonalLoop=1;jettySize=auto;html=1;entryX=1;entryY=0.5;entryDx=0;entryDy=0;entryPerimeter=0;" parent="1" source="5oXmgEn8arqMIcCC4W9q-2" target="5oXmgEn8arqMIcCC4W9q-1" edge="1">
          <mxGeometry relative="1" as="geometry">
            <mxPoint x="240" y="160" as="targetPoint" />
          </mxGeometry>
        </mxCell>
        <mxCell id="5oXmgEn8arqMIcCC4W9q-20" value="" style="edgeStyle=orthogonalEdgeStyle;rounded=0;orthogonalLoop=1;jettySize=auto;html=1;entryX=0.992;entryY=0.5;entryDx=0;entryDy=0;entryPerimeter=0;" parent="1" source="5oXmgEn8arqMIcCC4W9q-5" target="5oXmgEn8arqMIcCC4W9q-19" edge="1">
          <mxGeometry relative="1" as="geometry">
            <mxPoint x="740" y="130" as="sourcePoint" />
            <mxPoint x="569" y="130" as="targetPoint" />
          </mxGeometry>
        </mxCell>
        <mxCell id="5oXmgEn8arqMIcCC4W9q-26" style="edgeStyle=orthogonalEdgeStyle;rounded=0;orthogonalLoop=1;jettySize=auto;html=1;entryX=0;entryY=0.5;entryDx=0;entryDy=0;entryPerimeter=0;" parent="1" source="5oXmgEn8arqMIcCC4W9q-24" target="5oXmgEn8arqMIcCC4W9q-8" edge="1">
          <mxGeometry relative="1" as="geometry" />
        </mxCell>
        <mxCell id="5oXmgEn8arqMIcCC4W9q-31" value="Room&amp;nbsp;&lt;span style=&quot;background-color: initial;&quot;&gt;in Mongo&lt;/span&gt;" style="rounded=0;whiteSpace=wrap;html=1;fillColor=#fff2cc;strokeColor=#d6b656;" parent="1" vertex="1">
          <mxGeometry x="310" y="330" width="100" height="60" as="geometry" />
        </mxCell>
        <mxCell id="5oXmgEn8arqMIcCC4W9q-32" value="JVT TOKEN" style="ellipse;whiteSpace=wrap;html=1;aspect=fixed;fillColor=#dae8fc;strokeColor=#6c8ebf;" parent="1" vertex="1">
          <mxGeometry x="80" y="230" width="60" height="60" as="geometry" />
        </mxCell>
        <mxCell id="5oXmgEn8arqMIcCC4W9q-33" value="JVT TOKEN" style="ellipse;whiteSpace=wrap;html=1;aspect=fixed;fillColor=#dae8fc;strokeColor=#6c8ebf;" parent="1" vertex="1">
          <mxGeometry x="370" y="180" width="60" height="60" as="geometry" />
        </mxCell>
        <mxCell id="5oXmgEn8arqMIcCC4W9q-34" value="" style="endArrow=classic;startArrow=classic;html=1;rounded=0;entryX=0;entryY=0;entryDx=70;entryDy=80;entryPerimeter=0;exitX=0.583;exitY=0.125;exitDx=0;exitDy=0;exitPerimeter=0;" parent="1" source="5oXmgEn8arqMIcCC4W9q-6" target="5oXmgEn8arqMIcCC4W9q-2" edge="1">
          <mxGeometry width="50" height="50" relative="1" as="geometry">
            <mxPoint x="390" y="310" as="sourcePoint" />
            <mxPoint x="440" y="260" as="targetPoint" />
          </mxGeometry>
        </mxCell>
        <mxCell id="5oXmgEn8arqMIcCC4W9q-35" value="Esiste?" style="text;html=1;align=center;verticalAlign=middle;whiteSpace=wrap;rounded=0;" parent="1" vertex="1">
          <mxGeometry x="300" y="200" width="60" height="30" as="geometry" />
        </mxCell>
        <mxCell id="5oXmgEn8arqMIcCC4W9q-36" value="" style="shape=flexArrow;endArrow=classic;html=1;rounded=0;" parent="1" edge="1">
          <mxGeometry width="50" height="50" relative="1" as="geometry">
            <mxPoint x="10" y="260" as="sourcePoint" />
            <mxPoint x="80" y="260" as="targetPoint" />
          </mxGeometry>
        </mxCell>
        <mxCell id="5oXmgEn8arqMIcCC4W9q-37" value="USER&amp;nbsp;" style="text;html=1;align=center;verticalAlign=middle;whiteSpace=wrap;rounded=0;" parent="1" vertex="1">
          <mxGeometry x="10" y="260" width="60" height="30" as="geometry" />
        </mxCell>
        <mxCell id="5oXmgEn8arqMIcCC4W9q-43" value="" style="endArrow=classic;html=1;rounded=0;" parent="1" edge="1">
          <mxGeometry width="50" height="50" relative="1" as="geometry">
            <mxPoint x="260" y="260" as="sourcePoint" />
            <mxPoint x="260" y="420" as="targetPoint" />
          </mxGeometry>
        </mxCell>
        <mxCell id="5oXmgEn8arqMIcCC4W9q-45" style="edgeStyle=orthogonalEdgeStyle;rounded=0;orthogonalLoop=1;jettySize=auto;html=1;" parent="1" source="5oXmgEn8arqMIcCC4W9q-44" edge="1">
          <mxGeometry relative="1" as="geometry">
            <mxPoint x="260" y="250" as="targetPoint" />
          </mxGeometry>
        </mxCell>
        <mxCell id="5oXmgEn8arqMIcCC4W9q-44" value="&lt;div&gt;DTO&lt;/div&gt;ModelState" style="shape=trapezoid;perimeter=trapezoidPerimeter;whiteSpace=wrap;html=1;fixedSize=1;" parent="1" vertex="1">
          <mxGeometry x="200" y="420" width="120" height="60" as="geometry" />
        </mxCell>
        <mxCell id="n5h0NhVKHvGRv18xM5rK-1" value="" style="endArrow=none;dashed=1;html=1;dashPattern=1 3;strokeWidth=2;rounded=0;" edge="1" parent="1">
          <mxGeometry width="50" height="50" relative="1" as="geometry">
            <mxPoint x="10" y="520" as="sourcePoint" />
            <mxPoint x="820" y="520" as="targetPoint" />
          </mxGeometry>
        </mxCell>
        <mxCell id="n5h0NhVKHvGRv18xM5rK-7" style="edgeStyle=orthogonalEdgeStyle;rounded=0;orthogonalLoop=1;jettySize=auto;html=1;entryX=0;entryY=0.5;entryDx=0;entryDy=0;" edge="1" parent="1" source="n5h0NhVKHvGRv18xM5rK-2" target="n5h0NhVKHvGRv18xM5rK-3">
          <mxGeometry relative="1" as="geometry" />
        </mxCell>
        <mxCell id="n5h0NhVKHvGRv18xM5rK-8" style="edgeStyle=orthogonalEdgeStyle;rounded=0;orthogonalLoop=1;jettySize=auto;html=1;entryX=0;entryY=0.5;entryDx=0;entryDy=0;" edge="1" parent="1" source="n5h0NhVKHvGRv18xM5rK-2" target="n5h0NhVKHvGRv18xM5rK-5">
          <mxGeometry relative="1" as="geometry" />
        </mxCell>
        <mxCell id="n5h0NhVKHvGRv18xM5rK-2" value="User" style="rounded=0;whiteSpace=wrap;html=1;" vertex="1" parent="1">
          <mxGeometry x="160" y="585" width="120" height="60" as="geometry" />
        </mxCell>
        <mxCell id="n5h0NhVKHvGRv18xM5rK-3" value="" style="ellipse;whiteSpace=wrap;html=1;aspect=fixed;fillColor=#0D0D0D;" vertex="1" parent="1">
          <mxGeometry x="250" y="685" width="20" height="20" as="geometry" />
        </mxCell>
        <mxCell id="n5h0NhVKHvGRv18xM5rK-4" value="Username" style="text;html=1;align=center;verticalAlign=middle;whiteSpace=wrap;rounded=0;" vertex="1" parent="1">
          <mxGeometry x="270" y="680" width="60" height="30" as="geometry" />
        </mxCell>
        <mxCell id="n5h0NhVKHvGRv18xM5rK-5" value="" style="ellipse;whiteSpace=wrap;html=1;aspect=fixed;" vertex="1" parent="1">
          <mxGeometry x="250" y="715" width="20" height="20" as="geometry" />
        </mxCell>
        <mxCell id="n5h0NhVKHvGRv18xM5rK-6" value="Password" style="text;html=1;align=center;verticalAlign=middle;whiteSpace=wrap;rounded=0;" vertex="1" parent="1">
          <mxGeometry x="270" y="710" width="60" height="30" as="geometry" />
        </mxCell>
        <mxCell id="n5h0NhVKHvGRv18xM5rK-11" value="&lt;font style=&quot;font-size: 14px;&quot;&gt;&lt;b&gt;SQL Server&lt;/b&gt;&lt;/font&gt;" style="text;html=1;align=center;verticalAlign=middle;whiteSpace=wrap;rounded=0;" vertex="1" parent="1">
          <mxGeometry x="40" y="560" width="80" height="30" as="geometry" />
        </mxCell>
        <mxCell id="n5h0NhVKHvGRv18xM5rK-14" value="&lt;font style=&quot;font-size: 14px;&quot;&gt;&lt;b&gt;MongoDB&lt;/b&gt;&lt;/font&gt;" style="text;html=1;align=center;verticalAlign=middle;whiteSpace=wrap;rounded=0;" vertex="1" parent="1">
          <mxGeometry x="40" y="830" width="80" height="30" as="geometry" />
        </mxCell>
        <mxCell id="n5h0NhVKHvGRv18xM5rK-15" value="" style="endArrow=none;dashed=1;html=1;dashPattern=1 3;strokeWidth=2;rounded=0;" edge="1" parent="1">
          <mxGeometry width="50" height="50" relative="1" as="geometry">
            <mxPoint x="9" y="800" as="sourcePoint" />
            <mxPoint x="819" y="800" as="targetPoint" />
          </mxGeometry>
        </mxCell>
        <mxCell id="n5h0NhVKHvGRv18xM5rK-25" style="edgeStyle=orthogonalEdgeStyle;rounded=0;orthogonalLoop=1;jettySize=auto;html=1;entryX=0;entryY=0.5;entryDx=0;entryDy=0;" edge="1" parent="1" source="n5h0NhVKHvGRv18xM5rK-17" target="n5h0NhVKHvGRv18xM5rK-20">
          <mxGeometry relative="1" as="geometry" />
        </mxCell>
        <mxCell id="n5h0NhVKHvGRv18xM5rK-26" style="edgeStyle=orthogonalEdgeStyle;rounded=0;orthogonalLoop=1;jettySize=auto;html=1;entryX=0;entryY=0.5;entryDx=0;entryDy=0;" edge="1" parent="1" source="n5h0NhVKHvGRv18xM5rK-17" target="n5h0NhVKHvGRv18xM5rK-23">
          <mxGeometry relative="1" as="geometry" />
        </mxCell>
        <mxCell id="n5h0NhVKHvGRv18xM5rK-30" style="edgeStyle=orthogonalEdgeStyle;rounded=0;orthogonalLoop=1;jettySize=auto;html=1;endArrow=classic;endFill=1;" edge="1" parent="1" source="n5h0NhVKHvGRv18xM5rK-17" target="n5h0NhVKHvGRv18xM5rK-31">
          <mxGeometry relative="1" as="geometry">
            <mxPoint x="350" y="1030" as="targetPoint" />
          </mxGeometry>
        </mxCell>
        <mxCell id="n5h0NhVKHvGRv18xM5rK-46" style="edgeStyle=orthogonalEdgeStyle;rounded=0;orthogonalLoop=1;jettySize=auto;html=1;entryX=0.5;entryY=1;entryDx=0;entryDy=0;" edge="1" parent="1" source="n5h0NhVKHvGRv18xM5rK-17" target="n5h0NhVKHvGRv18xM5rK-44">
          <mxGeometry relative="1" as="geometry" />
        </mxCell>
        <mxCell id="n5h0NhVKHvGRv18xM5rK-17" value="Message" style="rounded=0;whiteSpace=wrap;html=1;" vertex="1" parent="1">
          <mxGeometry x="180" y="1000" width="120" height="60" as="geometry" />
        </mxCell>
        <mxCell id="n5h0NhVKHvGRv18xM5rK-33" style="edgeStyle=orthogonalEdgeStyle;rounded=0;orthogonalLoop=1;jettySize=auto;html=1;entryX=1;entryY=0.5;entryDx=0;entryDy=0;endArrow=doubleBlock;endFill=1;" edge="1" parent="1" source="n5h0NhVKHvGRv18xM5rK-18" target="n5h0NhVKHvGRv18xM5rK-31">
          <mxGeometry relative="1" as="geometry" />
        </mxCell>
        <mxCell id="n5h0NhVKHvGRv18xM5rK-36" style="edgeStyle=orthogonalEdgeStyle;rounded=0;orthogonalLoop=1;jettySize=auto;html=1;entryX=0;entryY=0.5;entryDx=0;entryDy=0;" edge="1" parent="1" source="n5h0NhVKHvGRv18xM5rK-18" target="n5h0NhVKHvGRv18xM5rK-34">
          <mxGeometry relative="1" as="geometry" />
        </mxCell>
        <mxCell id="n5h0NhVKHvGRv18xM5rK-48" style="edgeStyle=orthogonalEdgeStyle;rounded=0;orthogonalLoop=1;jettySize=auto;html=1;entryX=0.5;entryY=1;entryDx=0;entryDy=0;endArrow=doubleBlock;endFill=1;" edge="1" parent="1" source="n5h0NhVKHvGRv18xM5rK-18" target="n5h0NhVKHvGRv18xM5rK-45">
          <mxGeometry relative="1" as="geometry" />
        </mxCell>
        <mxCell id="n5h0NhVKHvGRv18xM5rK-55" style="edgeStyle=orthogonalEdgeStyle;rounded=0;orthogonalLoop=1;jettySize=auto;html=1;entryX=0;entryY=0.5;entryDx=0;entryDy=0;" edge="1" parent="1" source="n5h0NhVKHvGRv18xM5rK-18" target="n5h0NhVKHvGRv18xM5rK-53">
          <mxGeometry relative="1" as="geometry" />
        </mxCell>
        <mxCell id="n5h0NhVKHvGRv18xM5rK-18" value="Group" style="rounded=0;whiteSpace=wrap;html=1;" vertex="1" parent="1">
          <mxGeometry x="500" y="1000" width="120" height="60" as="geometry" />
        </mxCell>
        <mxCell id="n5h0NhVKHvGRv18xM5rK-20" value="" style="ellipse;whiteSpace=wrap;html=1;aspect=fixed;" vertex="1" parent="1">
          <mxGeometry x="270" y="1090" width="20" height="20" as="geometry" />
        </mxCell>
        <mxCell id="n5h0NhVKHvGRv18xM5rK-22" value="Date" style="text;html=1;align=center;verticalAlign=middle;whiteSpace=wrap;rounded=0;" vertex="1" parent="1">
          <mxGeometry x="290" y="1090" width="30" height="25" as="geometry" />
        </mxCell>
        <mxCell id="n5h0NhVKHvGRv18xM5rK-23" value="" style="ellipse;whiteSpace=wrap;html=1;aspect=fixed;" vertex="1" parent="1">
          <mxGeometry x="270" y="1120" width="20" height="20" as="geometry" />
        </mxCell>
        <mxCell id="n5h0NhVKHvGRv18xM5rK-24" value="Data" style="text;html=1;align=center;verticalAlign=middle;whiteSpace=wrap;rounded=0;" vertex="1" parent="1">
          <mxGeometry x="290" y="1120" width="30" height="25" as="geometry" />
        </mxCell>
        <mxCell id="n5h0NhVKHvGRv18xM5rK-31" value="is in" style="rhombus;whiteSpace=wrap;html=1;" vertex="1" parent="1">
          <mxGeometry x="363.5" y="1010" width="70" height="40" as="geometry" />
        </mxCell>
        <mxCell id="n5h0NhVKHvGRv18xM5rK-34" value="" style="ellipse;whiteSpace=wrap;html=1;aspect=fixed;" vertex="1" parent="1">
          <mxGeometry x="590" y="1087.5" width="20" height="20" as="geometry" />
        </mxCell>
        <mxCell id="n5h0NhVKHvGRv18xM5rK-35" value="Title" style="text;html=1;align=center;verticalAlign=middle;whiteSpace=wrap;rounded=0;" vertex="1" parent="1">
          <mxGeometry x="610" y="1085" width="30" height="25" as="geometry" />
        </mxCell>
        <mxCell id="n5h0NhVKHvGRv18xM5rK-37" style="edgeStyle=orthogonalEdgeStyle;rounded=0;orthogonalLoop=1;jettySize=auto;html=1;entryX=0;entryY=0.5;entryDx=0;entryDy=0;" edge="1" parent="1" source="n5h0NhVKHvGRv18xM5rK-39" target="n5h0NhVKHvGRv18xM5rK-40">
          <mxGeometry relative="1" as="geometry" />
        </mxCell>
        <mxCell id="n5h0NhVKHvGRv18xM5rK-47" style="edgeStyle=orthogonalEdgeStyle;rounded=0;orthogonalLoop=1;jettySize=auto;html=1;entryX=0.5;entryY=0;entryDx=0;entryDy=0;endArrow=doubleBlock;endFill=1;" edge="1" parent="1" source="n5h0NhVKHvGRv18xM5rK-39" target="n5h0NhVKHvGRv18xM5rK-44">
          <mxGeometry relative="1" as="geometry" />
        </mxCell>
        <mxCell id="n5h0NhVKHvGRv18xM5rK-49" style="edgeStyle=orthogonalEdgeStyle;rounded=0;orthogonalLoop=1;jettySize=auto;html=1;entryX=0.5;entryY=0;entryDx=0;entryDy=0;endArrow=doubleBlock;endFill=1;" edge="1" parent="1" source="n5h0NhVKHvGRv18xM5rK-39" target="n5h0NhVKHvGRv18xM5rK-45">
          <mxGeometry relative="1" as="geometry" />
        </mxCell>
        <mxCell id="n5h0NhVKHvGRv18xM5rK-39" value="User" style="rounded=0;whiteSpace=wrap;html=1;" vertex="1" parent="1">
          <mxGeometry x="330" y="830" width="120" height="60" as="geometry" />
        </mxCell>
        <mxCell id="n5h0NhVKHvGRv18xM5rK-40" value="" style="ellipse;whiteSpace=wrap;html=1;aspect=fixed;fillColor=#0D0D0D;" vertex="1" parent="1">
          <mxGeometry x="420" y="915" width="20" height="20" as="geometry" />
        </mxCell>
        <mxCell id="n5h0NhVKHvGRv18xM5rK-41" value="Username" style="text;html=1;align=center;verticalAlign=middle;whiteSpace=wrap;rounded=0;" vertex="1" parent="1">
          <mxGeometry x="440" y="910" width="60" height="30" as="geometry" />
        </mxCell>
        <mxCell id="n5h0NhVKHvGRv18xM5rK-44" value="write" style="rhombus;whiteSpace=wrap;html=1;" vertex="1" parent="1">
          <mxGeometry x="205" y="890" width="70" height="40" as="geometry" />
        </mxCell>
        <mxCell id="n5h0NhVKHvGRv18xM5rK-45" value="is in" style="rhombus;whiteSpace=wrap;html=1;" vertex="1" parent="1">
          <mxGeometry x="525" y="890" width="70" height="40" as="geometry" />
        </mxCell>
        <mxCell id="n5h0NhVKHvGRv18xM5rK-50" value="" style="endArrow=none;html=1;rounded=0;" edge="1" parent="1">
          <mxGeometry width="50" height="50" relative="1" as="geometry">
            <mxPoint x="510" y="885" as="sourcePoint" />
            <mxPoint x="510" y="835" as="targetPoint" />
          </mxGeometry>
        </mxCell>
        <mxCell id="n5h0NhVKHvGRv18xM5rK-51" value="" style="endArrow=none;html=1;rounded=0;" edge="1" parent="1">
          <mxGeometry width="50" height="50" relative="1" as="geometry">
            <mxPoint x="280" y="885" as="sourcePoint" />
            <mxPoint x="280" y="835" as="targetPoint" />
          </mxGeometry>
        </mxCell>
        <mxCell id="n5h0NhVKHvGRv18xM5rK-52" value="" style="endArrow=none;html=1;rounded=0;" edge="1" parent="1">
          <mxGeometry width="50" height="50" relative="1" as="geometry">
            <mxPoint x="580" y="970" as="sourcePoint" />
            <mxPoint x="539.75" y="969.84" as="targetPoint" />
          </mxGeometry>
        </mxCell>
        <mxCell id="n5h0NhVKHvGRv18xM5rK-53" value="" style="ellipse;whiteSpace=wrap;html=1;aspect=fixed;" vertex="1" parent="1">
          <mxGeometry x="590" y="1117.5" width="20" height="20" as="geometry" />
        </mxCell>
        <mxCell id="n5h0NhVKHvGRv18xM5rK-54" value="Descr" style="text;html=1;align=center;verticalAlign=middle;whiteSpace=wrap;rounded=0;" vertex="1" parent="1">
          <mxGeometry x="610" y="1115" width="40" height="25" as="geometry" />
        </mxCell>
        <mxCell id="n5h0NhVKHvGRv18xM5rK-56" value="LOGIN" style="text;html=1;align=center;verticalAlign=middle;whiteSpace=wrap;rounded=0;" vertex="1" parent="1">
          <mxGeometry x="740" y="50" width="60" height="30" as="geometry" />
        </mxCell>
        <mxCell id="n5h0NhVKHvGRv18xM5rK-57" value="CHATROOM" style="text;html=1;align=center;verticalAlign=middle;whiteSpace=wrap;rounded=0;" vertex="1" parent="1">
          <mxGeometry x="730" y="220" width="80" height="30" as="geometry" />
        </mxCell>
      </root>
    </mxGraphModel>
  </diagram>
</mxfile>
